<svg xmlns="http://www.w3.org/2000/svg" width="20.007" height="19.904" viewBox="0 0 20.007 19.904">
  <path id="Контур_26" data-name="Контур 26" d="M22,8a.76.76,0,0,0,0-.21V7.71a.77.77,0,0,0-.07-.16.35.35,0,0,0-.05-.08l-.1-.13-.08-.06-.12-.09-9-5a1,1,0,0,0-1,0l-9,5-.09.07-.11.08a.41.41,0,0,0-.07.11.39.39,0,0,0-.08.1.59.59,0,0,0-.06.14.3.3,0,0,0,0,.1A.76.76,0,0,0,2,8v8a1,1,0,0,0,.52.87l9,5a.75.75,0,0,0,.13.06h.1a1.06,1.06,0,0,0,.5,0h.1l.14-.06,9-5A1,1,0,0,0,22,16ZM12,11.87,5.06,8,7.82,6.48l6.83,3.9Zm0-7.72L18.94,8,16.7,9.25,9.87,5.34ZM4,9.7l7,3.92V19.3L4,15.41Zm9,9.6V13.62l3-1.68V15l2-1V10.82l2-1.11v5.7Z" transform="translate(-2 -2.056)"/>
</svg>
