<svg xmlns="http://www.w3.org/2000/svg" width="21.43" height="23.811" viewBox="0 0 21.43 23.811">
  <g id="Сгруппировать_3" data-name="Сгруппировать 3" transform="translate(-3 -2)">
    <path id="Контур_18" data-name="Контур 18" d="M13.715,2A10.706,10.706,0,0,0,8.373,21.989L5.912,23.63a1.191,1.191,0,0,0,.66,2.181H20.858a1.191,1.191,0,0,0,.661-2.181l-2.461-1.641A10.706,10.706,0,0,0,13.715,2Zm0,19.049a8.334,8.334,0,1,1,8.334-8.334A8.344,8.344,0,0,1,13.715,21.049Z" transform="translate(0)"/>
    <path id="Контур_19" data-name="Контур 19" d="M12.953,6a5.953,5.953,0,1,0,5.953,5.953A5.959,5.959,0,0,0,12.953,6Zm-1.786,5.953a1.786,1.786,0,1,1,1.787-1.786A1.786,1.786,0,0,1,11.167,11.953Z" transform="translate(0.762 0.762)"/>
  </g>
</svg>
